<svg xmlns="http://www.w3.org/2000/svg" xmlns:xlink="http://www.w3.org/1999/xlink" width="48" zoomAndPan="magnify" viewBox="0 0 36 30.000001" height="40" preserveAspectRatio="xMidYMid meet" version="1.0"><defs><clipPath id="d9141e9555"><path d="M 0.582031 0 L 35 0 L 35 29 L 0.582031 29 Z M 0.582031 0 " clip-rule="nonzero"/></clipPath></defs><g clip-path="url(#d9141e9555)"><path fill="#ffffff" d="M 21.949219 0.175781 C 16.066406 0.171875 9.929688 1.496094 3.734375 3.214844 C 2.949219 3.371094 2.179688 3.886719 1.773438 4.523438 C 1.402344 5.125 1.265625 5.726562 1.148438 6.359375 C 0.546875 9.730469 0.621094 13.039062 0.746094 16.710938 C 0.773438 17.546875 0.898438 18.542969 1.292969 19.148438 C 1.699219 19.761719 2.402344 20.148438 3.242188 20.277344 C 4.316406 20.4375 5.390625 20.5625 6.464844 20.675781 L 6.226562 27.300781 C 6.191406 27.800781 6.371094 28.203125 6.765625 28.515625 C 7.050781 28.734375 7.371094 28.832031 7.699219 28.855469 C 8.355469 28.902344 9.121094 28.625 9.503906 27.898438 C 11.175781 24.679688 12.222656 23.261719 14.3125 21.125 C 19.765625 21.257812 24.523438 20.957031 29.910156 20.558594 C 31.8125 20.507812 33.121094 18.949219 33.464844 17.707031 C 34.5 14.484375 34.660156 10.507812 34.769531 6.488281 C 34.816406 4.890625 34.265625 3.328125 33.285156 2.5 C 32.355469 1.746094 31.226562 1.472656 30.195312 1.191406 C 27.328125 0.542969 24.457031 0.195312 21.949219 0.175781 Z M 29.785156 2.695312 C 30.816406 2.976562 31.730469 3.246094 32.304688 3.710938 C 33.265625 4.730469 33.230469 5.410156 33.21875 6.511719 C 33.109375 10.410156 32.921875 14.195312 32.042969 17.0625 C 31.664062 18.132812 31.003906 18.894531 29.753906 19.011719 C 24.265625 19.417969 19.503906 19.730469 13.984375 19.574219 C 13.757812 19.566406 13.566406 19.644531 13.40625 19.804688 C 11.085938 22.144531 9.902344 23.769531 8.136719 27.171875 C 8.09375 27.25 8.003906 27.296875 7.894531 27.304688 C 7.820312 27.300781 7.792969 27.242188 7.789062 27.191406 L 8.027344 20.007812 C 8.042969 19.621094 7.722656 19.253906 7.335938 19.210938 C 6.050781 19.085938 4.769531 18.933594 3.484375 18.738281 C 2.929688 18.652344 2.726562 18.503906 2.574219 18.277344 C 2.3125 17.648438 2.316406 17.261719 2.296875 16.65625 C 2.171875 13.019531 2.113281 9.84375 2.671875 6.683594 C 2.722656 6.214844 2.898438 5.734375 3.082031 5.335938 C 3.390625 4.855469 3.863281 4.785156 4.335938 4.652344 C 10.394531 2.980469 16.320312 1.730469 21.898438 1.726562 C 24.632812 1.824219 27.507812 2.097656 29.785156 2.695312 Z M 8.859375 8.855469 C 8.023438 9.855469 8.109375 11.210938 8.753906 12.121094 C 9.089844 12.597656 9.617188 12.980469 10.253906 13.066406 C 11.085938 13.136719 11.613281 12.800781 12.179688 12.414062 C 13.210938 11.515625 13.316406 9.957031 12.53125 8.828125 C 12.132812 8.25 11.496094 7.90625 10.84375 7.882812 C 9.953125 7.890625 9.34375 8.289062 8.859375 8.855469 Z M 17.886719 8.039062 C 17.054688 8.066406 16.382812 8.640625 15.972656 9.261719 C 15.503906 9.972656 15.230469 10.863281 15.609375 11.734375 C 16.339844 13.410156 18.867188 13.390625 19.875 11.6875 C 20.339844 10.902344 20.21875 10.007812 19.875 9.359375 C 19.527344 8.710938 19.007812 8.183594 18.25 8.0625 C 18.128906 8.042969 18.007812 8.035156 17.886719 8.039062 Z M 25.214844 8.195312 C 24.953125 8.1875 24.695312 8.214844 24.441406 8.28125 C 23.441406 8.546875 22.59375 9.578125 22.722656 10.898438 C 22.785156 11.5625 23.089844 12.210938 23.640625 12.65625 C 24.191406 13.101562 24.992188 13.300781 25.835938 13.128906 C 26.804688 12.929688 27.402344 12.148438 27.601562 11.394531 C 27.804688 10.640625 27.753906 9.875 27.289062 9.25 C 26.773438 8.5625 25.996094 8.214844 25.214844 8.195312 Z M 10.777344 9.433594 C 10.960938 9.433594 11.109375 9.492188 11.261719 9.710938 C 11.601562 10.199219 11.503906 10.941406 11.164062 11.238281 C 10.824219 11.535156 10.609375 11.5625 10.460938 11.542969 C 10.3125 11.519531 10.160156 11.417969 10.027344 11.226562 C 9.765625 10.859375 9.691406 10.269531 10.03125 9.847656 C 10.210938 9.605469 10.542969 9.457031 10.777344 9.433594 Z M 17.996094 9.601562 C 18.027344 9.605469 18.351562 9.796875 18.503906 10.085938 C 18.660156 10.378906 18.691406 10.648438 18.542969 10.898438 C 18.101562 11.640625 17.167969 11.441406 17.027344 11.117188 C 16.972656 10.992188 17.011719 10.5 17.269531 10.109375 C 17.523438 9.722656 17.847656 9.578125 17.996094 9.601562 Z M 26.039062 10.171875 C 26.085938 10.234375 26.203125 10.660156 26.113281 10.996094 C 26.023438 11.332031 25.878906 11.539062 25.519531 11.613281 C 25.0625 11.707031 24.804688 11.613281 24.613281 11.457031 C 24.417969 11.300781 24.289062 11.035156 24.261719 10.753906 C 24.191406 10.054688 24.441406 9.890625 24.839844 9.785156 C 25.308594 9.667969 25.832031 9.867188 26.039062 10.171875 Z M 26.039062 10.171875 " fill-opacity="1" fill-rule="nonzero"/></g></svg>